#!OML:ASF E:\I on waltz\AllaLogoMonkeySwing\Project 1\Capture day 1\Session 1\Subject1.ASF
:FULLY-SPECIFIED
:DEGREES
767
root 1.2688 17.9849 1.76564 179.261 529.75 537.127
lowerback 10.5648 4.33027 1.04045
upperback 2.08411 5.91825 1.24104
thorax -3.7522 2.92763 -0.0976843
lowerneck -0.987447 17.0775 10.8281
upperneck 8.17852 23.8745 -12.4981
head 5.42225 11.673 -3.74729
rclavicle -3.64273e-014 2.5842e-015
rhumerus -41.6047 -31.5579 -62.5365
rradius 32.441
rwrist 3.63656
rhand -4.67248 -38.097
rfingers 7.12502
rthumb 21.1081 -66.968
lclavicle -3.64273e-014 2.5842e-015
lhumerus -37.5486 23.345 76.2364
lradius 31.4718
lwrist -8.37502
lhand -5.82465 -9.97613
lfingers 7.12502
lthumb 20.0009 19.0145
rfemur -3.70995 -2.07319 16.5185
rtibia 19.4295
rfoot -15.868 -6.57029
rtoes 11.8104
lfemur 2.22184 -1.6622 -16.7681
ltibia 11.005
lfoot -14.1188 -5.35191
ltoes -24.8818
768
root 1.28886 17.9789 1.74514 179.416 530.448 537.19
lowerback 10.6222 4.29988 0.843704
upperback 2.0881 5.85626 1.23882
thorax -3.79934 2.89822 0.0120368
lowerneck -1.16448 16.7726 10.6517
upperneck 7.51892 23.3937 -12.7122
head 5.19736 11.4367 -3.85839
rclavicle -7.30534e-015 1.39149e-015
rhumerus -41.8764 -31.8496 -62.1201
rradius 31.7068
rwrist 3.87181
rhand -3.94695 -39.2103
rfingers 7.12502
rthumb 21.8049 -68.0019
lclavicle -7.30534e-015 1.39149e-015
lhumerus -37.3766 23.1877 76.2374
lradius 31.6848
lwrist -7.98889
lhand -6.05761 -10.0283
lfingers 7.12502
lthumb 19.777 18.9855
rfemur -4.45919 -2.34706 16.3172
rtibia 20.4304
rfoot -16.8018 -6.40607
rtoes 11.0832
lfemur 2.01114 -1.47371 -16.9216
ltibia 11.2012
lfoot -14.1788 -4.94038
ltoes -25.0185
769
root 1.30343 17.9716 1.72478 179.624 531.096 537.375
lowerback 10.6596 4.25055 0.47987
upperback 2.06102 5.74881 1.19603
thorax -3.87949 2.84785 0.178521
lowerneck -1.1712 16.3297 10.6868
upperneck 6.6494 22.7387 -13.196
head 4.91797 11.1243 -4.11201
rclavicle -2.7159e-014 1.2921e-014
rhumerus -42.187 -32.1409 -61.7041
rradius 30.9949
rwrist 4.08032
rhand -3.94165 -39.6787
rfingers 7.12502
rthumb 21.81 -68.4697
lclavicle -2.7159e-014 1.2921e-014
lhumerus -37.2466 23.0226 76.1477
lradius 31.928
lwrist -7.58382
lhand -6.28426 -10.0476
lfingers 7.12502
lthumb 19.5591 18.9885
rfemur -5.32907 -2.76977 16.0103
rtibia 21.6407
rfoot -17.8257 -6.60188
rtoes 11.494
lfemur 1.71054 -1.19746 -17.1674
ltibia 11.4551
lfoot -14.2312 -4.63624
ltoes -24.8347
770
root 1.31489 17.9632 1.70548 179.795 531.708 537.636
lowerback 10.7401 4.17936 0.0304724
upperback 2.0164 5.60153 1.12691
thorax -4.00562 2.77868 0.367023
lowerneck -1.02462 15.9235 11.16
upperneck 6.00574 22.1808 -13.8786
head 4.76492 10.863 -4.4647
rclavicle -3.0091e-014 1.49089e-015
rhumerus -42.595 -32.5596 -61.0532
rradius 30.0501
rwrist 3.75706
rhand -4.69662 -38.8356
rfingers 7.12502
rthumb 21.0849 -67.7092
lclavicle -3.0091e-014 1.49089e-015
lhumerus -37.1922 22.9043 75.9577
lradius 32.1985
lwrist -7.24292
lhand -6.6261 -9.95312
lfingers 7.12502
lthumb 19.2304 19.1161
rfemur -6.13434 -3.38573 15.6405
rtibia 22.9837
rfoot -18.7864 -7.22249
rtoes 12.4281
lfemur 1.45786 -0.879709 -17.4995
ltibia 11.7065
lfoot -14.2204 -4.35974
ltoes -24.8628
771
root 1.32429 17.9566 1.69057 179.901 532.33 537.848
lowerback 10.8373 4.10072 -0.354978
upperback 1.96166 5.4512 1.07074
thorax -4.14496 2.70786 0.533343
lowerneck -1.09812 15.3921 11.3709
upperneck 5.66467 21.4314 -14.174
head 4.6367 10.4972 -4.6731
rclavicle 1.30701e-014 -1.13307e-014
rhumerus -42.9561 -32.9387 -60.3971
rradius 29.1529
rwrist 3.58718
rhand -5.19672 -38.3371
rfingers 7.12502
rthumb 20.6044 -67.2635
lclavicle 1.30701e-014 -1.13307e-014
lhumerus -37.1963 22.7474 75.7089
lradius 32.4549
lwrist -6.86601
lhand -7.0144 -9.92864
lfingers 7.12502
lthumb 18.857 19.1773
rfemur -6.79623 -3.9909 15.3473
rtibia 24.3126
rfoot -19.4341 -8.04315
rtoes 13.4385
lfemur 1.31552 -0.573743 -17.7896
ltibia 11.9002
lfoot -14.2288 -4.0382
ltoes -25.1219
772
root 1.33137 17.9526 1.67838 179.984 532.894 537.955
lowerback 10.9179 4.01523 -0.563454
upperback 1.91049 5.31197 1.03248
thorax -4.2557 2.64097 0.621113
lowerneck -1.96539 14.6084 10.5861
upperneck 5.71965 20.2385 -13.4328
head 4.48322 9.88133 -4.43542
rclavicle -2.32454e-014 5.96354e-016
rhumerus -43.3058 -33.4302 -59.7381
rradius 28.5014
rwrist 4.01161
rhand -5.49468 -38.6409
rfingers 7.12502
rthumb 20.3181 -67.5981
lclavicle -2.32454e-014 5.96354e-016
lhumerus -37.1305 22.6147 75.4371
lradius 32.6015
lwrist -6.57267
lhand -7.41007 -10.0853
lfingers 7.12502
lthumb 18.4764 19.0572
rfemur -7.40387 -4.43788 15.2049
rtibia 25.6424
rfoot -19.7047 -8.93176
rtoes 14.2673
lfemur 1.22322 -0.473645 -17.9867
ltibia 12.024
lfoot -14.2279 -3.624
ltoes -24.9705
773
root 1.33652 17.951 1.66852 180.044 533.347 538.054
lowerback 10.9789 3.84572 -0.735858
upperback 1.91011 5.06464 0.99307
thorax -4.29607 2.52053 0.708052
lowerneck -2.93665 13.8083 9.53964
upperneck 5.51548 19.0005 -12.5231
head 4.24014 9.24823 -4.11101
rclavicle 3.38431e-014 -8.84592e-015
rhumerus -43.4154 -33.9305 -59.2086
rradius 27.8899
rwrist 4.53867
rhand -5.89871 -39.0087
rfingers 7.12502
rthumb 19.9297 -68.0067
lclavicle 3.38431e-014 -8.84592e-015
lhumerus -37.008 22.828 75.037
lradius 32.7049
lwrist -6.41774
lhand -7.8389 -10.2192
lfingers 7.12502
lthumb 18.0638 18.9619
rfemur -7.86895 -4.81912 15.0833
rtibia 26.8907
rfoot -19.6061 -9.69691
rtoes 15.0564
lfemur 1.16775 -0.454274 -18.171
ltibia 12.1208
lfoot -14.255 -3.26735
ltoes -24.8026
774
root 1.33758 17.9512 1.6655 180.058 533.757 538.14
lowerback 10.987 3.59719 -0.967208
upperback 1.94273 4.70608 0.961165
thorax -4.27407 2.34616 0.857549
lowerneck -3.12042 13.0282 8.93458
upperneck 4.36151 17.8045 -12.1977
head 3.70646 8.68009 -4.08265
rclavicle 2.71714e-014 -9.93923e-017
rhumerus -43.2861 -34.3746 -58.8373
rradius 27.1639
rwrist 5.17043
rhand -6.20101 -39.1107
rfingers 7.12502
rthumb 19.6391 -68.1387
lclavicle 2.71714e-014 -9.93923e-017
lhumerus -37.0449 23.3656 74.4329
lradius 32.9631
lwrist -6.38
lhand -8.21898 -10.1867
lfingers 7.12502
lthumb 17.6981 19.0279
rfemur -8.11187 -5.01228 14.988
rtibia 27.9655
rfoot -19.1348 -10.1277
rtoes 15.9997
lfemur 1.1927 -0.27238 -18.2671
ltibia 12.1675
lfoot -14.3327 -3.08946
ltoes -24.9879
775
root 1.33463 17.9511 1.66658 180.06 534.235 538.157
lowerback 10.9699 3.3651 -1.14205
upperback 1.95926 4.3762 0.927765
thorax -4.24886 2.18515 0.970996
lowerneck -2.92681 12.2059 8.54762
upperneck 2.75567 16.5496 -12.0289
head 3.01635 8.10287 -4.15915
rclavicle 4.38134e-014 6.36111e-015
rhumerus -43.3035 -34.8283 -58.4671
rradius 26.6686
rwrist 5.75681
rhand -6.39287 -38.8299
rfingers 7.12502
rthumb 19.4547 -67.8766
lclavicle 4.38134e-014 6.36111e-015
lhumerus -37.1844 23.8756 73.759
lradius 33.3207
lwrist -6.308
lhand -8.529 -10.1301
lfingers 7.12502
lthumb 17.3998 19.1111
rfemur -8.25674 -4.85911 14.9889
rtibia 28.8751
rfoot -18.2946 -10.1189
rtoes 17.0306
lfemur 1.27058 -0.0183522 -18.2335
ltibia 12.1403
lfoot -14.3797 -2.92021
ltoes -25.2338
776
root 1.32632 17.9495 1.66994 180.088 534.69 538.254
lowerback 10.9368 3.13147 -1.41855
upperback 1.97218 4.03279 0.89255
thorax -4.2232 2.01877 1.142
lowerneck -2.96394 11.4157 8.08256
upperneck 1.37412 15.3517 -11.6815
head 2.42577 7.53959 -4.1312
rclavicle -2.59631e-014 2.41026e-015
rhumerus -43.3694 -34.9741 -58.2919
rradius 26.5835
rwrist 6.01217
rhand -6.4654 -38.4527
rfingers 7.12502
rthumb 19.3849 -67.5064
lclavicle -2.59631e-014 2.41026e-015
lhumerus -37.3416 24.258 73.1593
lradius 33.6997
lwrist -5.84377
lhand -9.01202 -10.1067
lfingers 7.12502
lthumb 16.9349 19.175
rfemur -8.26557 -4.50536 14.8874
rtibia 29.4027
rfoot -16.6749 -9.91879
rtoes 18.4158
lfemur 1.32801 0.190626 -18.281
ltibia 12.121
lfoot -14.4295 -2.74741
ltoes -25.4508
777
root 1.30845 17.9462 1.67773 180.138 534.987 538.399
lowerback 10.87 2.85042 -1.85627
upperback 1.9678 3.61126 0.9058
thorax -4.20406 1.81637 1.46622
lowerneck -3.12941 10.6669 7.60308
upperneck 0.25929 14.2357 -11.2252
head 1.94457 7.006 -4.03485
rclavicle -3.32832e-014 7.47306e-015
rhumerus -43.3291 -34.847 -58.2484
rradius 26.5827
rwrist 6.15444
rhand -6.3521 -38.5432
rfingers 7.12502
rthumb 19.4939 -67.586
lclavicle -3.32832e-014 7.47306e-015
lhumerus -37.6022 24.7287 72.5691
lradius 34.0764
lwrist -5.14957
lhand -9.8672 -10.1299
lfingers 7.12502
lthumb 16.1115 19.2204
rfemur -8.03063 -4.06095 14.7448
rtibia 29.3436
rfoot -14.2984 -9.83317
rtoes 20.8388
lfemur 1.33506 0.363395 -18.3344
ltibia 12.148
lfoot -14.5023 -2.70632
ltoes -25.7471
778
root 1.28395 17.9427 1.68832 180.196 535.211 538.305
lowerback 10.8221 2.53383 -2.11338
upperback 1.87598 3.16748 1.0073
thorax -4.27413 1.60252 1.78143
lowerneck -3.20636 9.93757 7.26677
upperneck -0.696913 13.1734 -10.4108
head 1.65346 6.50942 -4.26402
rclavicle -1.21771e-014 -2.5345e-015
rhumerus -43.3019 -34.574 -58.2012
rradius 26.554
rwrist 6.16382
rhand -6.39607 -38.8232
rfingers 7.12502
rthumb 19.4516 -67.8703
lclavicle -1.21771e-014 -2.5345e-015
lhumerus -38.0237 25.2568 71.8956
lradius 34.3893
lwrist -4.60134
lhand -10.7723 -10.2107
lfingers 7.12502
lthumb 15.2398 19.208
rfemur -7.58536 -3.46583 14.9106
rtibia 28.5766
rfoot -14.0956 -9.51207
rtoes 17.5601
lfemur 1.2969 0.502353 -18.0546
ltibia 12.189
lfoot -14.5777 -2.70575
ltoes -25.8784
779
root 1.26132 17.9403 1.70209 180.248 535.461 538.058
lowerback 10.7694 2.21453 -2.16064
upperback 1.72322 2.74646 1.15466
thorax -4.3932 1.39874 2.02269
lowerneck -3.47782 9.25801 6.64803
upperneck -1.13213 12.2149 -9.57384
head 1.35264 6.03506 -3.91593
rclavicle -1.01007e-014 -4.96962e-015
rhumerus -43.3188 -34.1315 -58.1592
rradius 26.5954
rwrist 5.95418
rhand -6.51923 -38.7814
rfingers 7.12502
rthumb 19.3332 -67.8404
lclavicle -1.01007e-014 -4.96962e-015
lhumerus -38.5082 25.6422 71.245
lradius 34.585
lwrist -4.0977
lhand -11.5393 -10.2482
lfingers 7.12502
lthumb 14.5009 19.2251
rfemur -6.95893 -2.85129 15.2483
rtibia 27.167
rfoot -14.1278 -9.28671
rtoes 16.177
lfemur 1.29416 0.574959 -17.6142
ltibia 12.1909
lfoot -14.628 -2.62334
ltoes -26.0274
780
root 1.24035 17.9401 1.72041 180.335 535.699 537.988
lowerback 10.6589 1.94633 -2.34013
upperback 1.55735 2.37841 1.28363
thorax -4.49832 1.22366 2.31348
lowerneck -3.83651 8.59309 5.93903
upperneck -1.28587 11.3015 -8.58592
head 1.16534 5.57975 -3.48574
rclavicle -1.62848e-014 -1.04238e-014
rhumerus -43.4527 -33.7557 -57.9492
rradius 26.7553
rwrist 5.79616
rhand -6.5544 -38.7267
rfingers 7.12502
rthumb 19.2993 -67.789
lclavicle -1.62848e-014 -1.04238e-014
lhumerus -38.8863 25.9052 70.7906
lradius 34.6412
lwrist -3.60009
lhand -12.2133 -10.1726
lfingers 7.12502
lthumb 13.8514 19.3462
rfemur -6.24966 -2.43093 15.3699
rtibia 25.5407
rfoot -14.3502 -9.1348
rtoes 15.0691
lfemur 1.32852 0.634665 -17.4154
ltibia 12.1206
lfoot -14.6257 -2.5419
ltoes -26.1873
